<svg xmlns="http://www.w3.org/2000/svg" viewBox="0 0 256 256" role="img" aria-label="SEPEFREI logo">
  <defs>
    <linearGradient id="gLight" x1="0" y1="0" x2="0" y2="1">
      <stop offset="0%" stop-color="#59C477"/>
      <stop offset="100%" stop-color="#3A9C55"/>
    </linearGradient>
    <linearGradient id="gDark" x1="0" y1="0" x2="0" y2="1">
      <stop offset="0%" stop-color="#2E8B43"/>
      <stop offset="100%" stop-color="#217236"/>
    </linearGradient>
  </defs>
  <rect width="256" height="256" rx="28" fill="none"/>
  <path d="M47 44a24 24 0 0 1 33 10l36 74a24 24 0 0 1 0 21l-36 74a24 24 0 1 1-43-21l31-64-31-64a24 24 0 0 1 10-33z" fill="url(#gLight)"/>
  <path d="M209 44a24 24 0 0 0-33 10l-36 74a24 24 0 0 0 0 21l36 74a24 24 0 1 0 43-21l-31-64 31-64a24 24 0 0 0-10-33z" fill="url(#gLight)"/>
  <path d="M118 45a24 24 0 0 1 33 10l-68 148a24 24 0 1 1-43-21l68-148a24 24 0 0 1 10-10z" fill="url(#gDark)"/>
</svg>

